<?xml version="1.0" encoding="UTF-8"?>
<svg id="Layer_1" xmlns="http://www.w3.org/2000/svg" version="1.1" viewBox="0 0 24 24">
  <!-- Generator: Adobe Illustrator 29.8.2, SVG Export Plug-In . SVG Version: 2.1.1 Build 3)  -->
  <path d="M10.62,10.98c1.23.13,1.63,1.83.56,2.49s-2.31-.28-2.04-1.46c.12-.51.61-.97,1.14-1.02.08,0,.25,0,.34,0Z"/>
  <path d="M6.94,20.33c.06-.01.23.03.25-.03l.42-2.14h-.31s-.1-.05-.12-.06c-.29-.17-.27-.6.03-.74.02-.01.12-.05.13-.05h1.22l-.22,1.18s-.18-.03-.19.03l-.35,1.77c0,.05.17.02.21.03-.03.21.11.38.08.59h-1.15v-.59Z"/>
  <path d="M13.44,17.11l-1.19.18c-.09.02-.24-.07-.3-.08-.03,0-.09.04-.14.05-.31.05-.74-.03-1.06-.05-.07,0-.46-.03-.48-.02l-.62,3.3c-.2.92-1.54.74-1.45-.23l.75-4.03.11-.27c.05,0,.03,0,.04.03.05.2.03.42.14.62.34.65,1.45.11,2.01.06,1.09.69,2.41-.49,1.78-1.64-.58-1.06-2.2-.7-2.31.49l-.26.03s-.19-.45-.2-.5c-.03-.25.02-.56.02-.82-.04,0-.12-.02-.14.03-.04.5-.03.99.02,1.49l.53-.09c.03.1.03.2.06.3.04.13.12.3.2.41.02.03.18.17.15.19-.4.03-.82.19-1.22.22-.6.04-.62-.43-.68-.9-.1-.82-.09-1.67.14-2.48l.41.29c1.26.61,2.63-.64,2.1-1.95l2.15-.1c.27.02.43.2.46.47.09.74.09,1.56.14,2.31.01.24.05.48.06.71s.03.46-.18.63c.12.13.16.29.21.45.39,1.14.8,2.43,1.11,3.59.02.08.06.18.07.26.1.87-1.03,1.18-1.4.41l-1.05-3.38ZM13.54,12.64l-.7.02-.03.03.87,2.18-.14-2.23Z"/>
  <path d="M13.68,18.49h-3.48l.23-1.12,1.18.1c.23-.05.4-.06.63,0l1.03-.16.04.02.37,1.17Z"/>
  <path d="M16.39,18.15l.42,2.14c.02.06.19.02.25.03v.59h-1.15c-.04-.18.06-.26.11-.41.02-.05.02-.15.04-.17.02-.03.12.01.14-.04l-.36-1.77-.03-.03-.23-.02-.35-1.17h1.41s.11.04.13.05c.3.14.32.57.03.74-.02.01-.1.06-.12.06h-.31Z"/>
  <path d="M11.84,14.58c1.29-.12,1.6,1.77.38,2.07-1.49.37-1.84-1.93-.38-2.07ZM11.82,15.16c-.16.03-.34.22-.37.39-.07.4.31.71.69.55.53-.22.32-1.04-.32-.93Z"/>
  <path d="M11.9,15.43c.32-.06.35.47,0,.41-.2-.03-.22-.37,0-.41Z"/>
</svg>