<?xml version="1.0" encoding="UTF-8"?>
<svg id="Layer_1" xmlns="http://www.w3.org/2000/svg" version="1.1" viewBox="0 0 24 24">
  <!-- Generator: Adobe Illustrator 29.8.2, SVG Export Plug-In . SVG Version: 2.1.1 Build 3)  -->
  <path d="M10.4,20.88c-.38-.14-.56-.45-.51-.86l.31-3.58c.56-.31.56-1.07.1-1.48.13-.83-.07-1.67.16-2.48.05-.16.11-.31.17-.46l-.09-.03c-.07,0-.15.31-.18.38-.24.77-.29,1.64-.32,2.45-.33-.07-.62-.02-.89.18.02-.81.07-1.63.25-2.42.17-.74.47-1.68,1.26-1.96.74.02,1.55-.07,2.28-.01.44.03.69.42.95.73l-.12.13-.4.1c-.07-.02-.05-.43-.27-.5-.17-.05-.76.06-.74.34.1.38.16.82.29,1.19.14.41.34.29.68.2.02.54-.02,1.08,0,1.62.09,1.92.38,3.84.49,5.76-.03.34-.21.57-.54.68h-.31c-.31-.1-.48-.31-.53-.63l-.36-4.47h-.45c-.05.08-.05.24-.06.34-.14,1.41-.19,2.82-.34,4.23-.07.27-.26.43-.5.53h-.33Z"/>
  <path d="M11.75,7.82c1.61-.14,1.8,2.29.3,2.46-1.75.2-1.93-2.32-.3-2.46Z"/>
  <path d="M13.51,12.16l.25-.05c.02.18-.04.35-.08.52l.13.04c.02-.19.09-.36.08-.55,0-.1-.06-.15-.07-.23-.09-.54.67-.76.89-.17.18.5-.1,1.58-.35,2.05-.24.44-.86.27-.85-.23,0-.12.03-.23.03-.36,0-.11-.06-.31-.05-.4,0-.05.09-.12.09-.21,0-.08-.11-.34-.07-.39Z"/>
  <path d="M9.58,14.94c1.29-.2,1.17,1.77-.02,1.49-.8-.19-.71-1.37.02-1.49ZM9.49,15.94c.37.37.9-.29.45-.56-.36-.22-.75.27-.45.56Z"/>
  <path d="M13.26,11.74l.46-.1c-.06.11-.02.22,0,.33l-.38.12c.04.13.18.46.07.56-.04.04-.42.14-.48.13-.1-.02-.11-.08-.14-.17-.08-.24-.26-.88-.29-1.12-.01-.12,0-.16.12-.2.09-.04.38-.11.46-.07.11.05.13.41.18.52Z"/>
  <path d="M14.94,11.67l-.1.02-.18-.28.18-.04c.01-.16-.18-.48-.05-.6.04-.03.44-.14.49-.13.04.01.1.07.12.11.06.14.28,1.02.3,1.18.02.2-.28.26-.44.28-.29.03-.25-.33-.32-.53Z"/>
  <path d="M9.68,15.55c.28-.08.3.33.02.27-.13-.02-.12-.24-.02-.27Z"/>
</svg>